<svg width="40" height="40" viewBox="0 0 40 40" fill="none" xmlns="http://www.w3.org/2000/svg">
<path d="M38.0928 0.506592H1.90645C1.03621 0.506592 0.33313 1.20967 0.33313 2.07991V38.2663C0.33313 39.1365 1.03621 39.8396 1.90645 39.8396H38.0928C38.9631 39.8396 39.6661 39.1365 39.6661 38.2663V2.07991C39.6661 1.20967 38.9631 0.506592 38.0928 0.506592ZM33.5499 11.9869H30.4081C27.9449 11.9869 27.468 13.1571 27.468 14.8779V18.6686H33.3483L32.5813 24.603H27.468V39.8396H21.337V24.6079H16.2089V18.6686H21.337V14.2928C21.337 9.21394 24.4394 6.44588 28.9725 6.44588C31.1456 6.44588 33.009 6.60813 33.5548 6.68188V11.9869H33.5499Z" fill="#112D57"/>
</svg>
