<svg width="40" height="40" viewBox="0 0 40 40" fill="none" xmlns="http://www.w3.org/2000/svg">
<path d="M37.9212 0.506592H1.73482C0.864577 0.506592 0.161499 1.20967 0.161499 2.07991V38.2663C0.161499 39.1365 0.864577 39.8396 1.73482 39.8396H37.9212C38.7914 39.8396 39.4945 39.1365 39.4945 38.2663V2.07991C39.4945 1.20967 38.7914 0.506592 37.9212 0.506592ZM11.8287 34.0232H5.99262V15.2516H11.8287V34.0232ZM8.9131 12.6851C8.24407 12.6851 7.59007 12.4867 7.0338 12.115C6.47753 11.7433 6.04397 11.215 5.78794 10.5969C5.53192 9.97882 5.46493 9.29869 5.59545 8.64252C5.72597 7.98635 6.04814 7.38362 6.52121 6.91055C6.99428 6.43748 7.59701 6.11531 8.25317 5.98479C8.90934 5.85427 9.58948 5.92126 10.2076 6.17729C10.8257 6.43331 11.354 6.86687 11.7257 7.42314C12.0973 7.97942 12.2957 8.63341 12.2957 9.30244C12.2908 11.1708 10.7765 12.6851 8.9131 12.6851ZM33.6781 34.0232H27.847V24.8931C27.847 22.715 27.8077 19.9174 24.8135 19.9174C21.7799 19.9174 21.3128 22.2872 21.3128 24.7357V34.0232H15.4866V15.2516H21.0817V17.818H21.1604C21.9372 16.343 23.84 14.7845 26.6818 14.7845C32.5916 14.7845 33.6781 18.6735 33.6781 23.7278V34.0232Z" fill="#112D57"/>
</svg>
