<svg width="42" height="34" viewBox="0 0 42 34" fill="none" xmlns="http://www.w3.org/2000/svg">
<path d="M41.6279 4.503C40.1234 5.152 38.4862 5.61908 36.7998 5.80099C38.5507 4.76081 39.8618 3.1175 40.4873 1.17936C38.8443 2.15674 37.0444 2.84209 35.1675 3.20501C34.383 2.36637 33.4342 1.69826 32.3803 1.24233C31.3263 0.786403 30.1897 0.552415 29.0414 0.554952C24.3951 0.554952 20.6585 4.32109 20.6585 8.94272C20.6585 9.59171 20.7372 10.2407 20.865 10.8651C13.908 10.5013 7.7032 7.17765 3.57815 2.08894C2.82652 3.37275 2.43264 4.83451 2.43749 6.32215C2.43749 9.2328 3.9174 11.7993 6.17413 13.3087C4.8442 13.2563 3.54542 12.8908 2.38341 12.2418V12.345C2.38341 16.4209 5.26455 19.7986 9.10444 20.5755C8.38346 20.7627 7.64178 20.8585 6.89687 20.8606C6.35113 20.8606 5.83488 20.8065 5.31372 20.7328C6.37571 24.0564 9.46827 26.4705 13.1508 26.5492C10.2697 28.8059 6.66088 30.1334 2.74233 30.1334C2.03925 30.1334 1.39025 30.1088 0.716675 30.0301C4.43364 32.4147 8.84386 33.7914 13.5933 33.7914C29.0119 33.7914 37.4488 21.018 37.4488 9.93096C37.4488 9.56713 37.4488 9.2033 37.4242 8.83947C39.0565 7.64473 40.4873 6.16482 41.6279 4.503Z" fill="#112D57"/>
</svg>
